name rise31.4854peak64.571fall78.6902.mot
datacolumns 19
datarows 33
range 13.34828200000000 13.40162500000000
endheader
time	ground_force1_vx	ground_force1_vy	ground_force1_vz	ground_force1_px	ground_force1_py	ground_force1_pz	ground_force2_vx	ground_force2_vy	ground_force2_vz	ground_force2_px	ground_force2_py	ground_force2_pz	ground_torque1_x	ground_torque1_y	ground_torque1_z	ground_torque2_x	ground_torque2_y	ground_torque2_z	
13.34828200000000	65.58951800000000	765.11707999999999	55.86993600000000	0.31733900000000	0.00000000000000	0.11787200000000	0.00000000000000	0.00000000000000	0.00000000000000	0.00000000000000	0.00000000000000	0.00000000000000	0.00000000000000	19.29733800000000	0.00000000000000	0.00000000000000	0.00000000000000	0.00000000000000	
13.34995400000000	64.93152200000000	768.11666400000001	55.98761200000000	0.31653400000000	0.00000000000000	0.11785500000000	0.00000000000000	0.00000000000000	0.00000000000000	0.00000000000000	0.00000000000000	0.00000000000000	0.00000000000000	19.39940000000000	0.00000000000000	0.00000000000000	0.00000000000000	0.00000000000000	
13.35161500000000	64.27360299999999	770.96659499999998	56.10707700000000	0.31575200000000	0.00000000000000	0.11784000000000	0.00000000000000	0.00000000000000	0.00000000000000	0.00000000000000	0.00000000000000	0.00000000000000	0.00000000000000	19.50430300000000	0.00000000000000	0.00000000000000	0.00000000000000	0.00000000000000	
13.35329500000000	63.61602700000000	773.66374900000005	56.22814400000000	0.31499200000000	0.00000000000000	0.11782600000000	0.00000000000000	0.00000000000000	0.00000000000000	0.00000000000000	0.00000000000000	0.00000000000000	0.00000000000000	19.61182100000000	0.00000000000000	0.00000000000000	0.00000000000000	0.00000000000000	
13.35495000000000	62.95898600000000	776.20520899999997	56.35054700000000	0.31425100000000	0.00000000000000	0.11781200000000	0.00000000000000	0.00000000000000	0.00000000000000	0.00000000000000	0.00000000000000	0.00000000000000	0.00000000000000	19.72168400000000	0.00000000000000	0.00000000000000	0.00000000000000	0.00000000000000	
13.35661700000000	62.30260500000000	778.58828700000004	56.47394300000000	0.31352800000000	0.00000000000000	0.11780100000000	0.00000000000000	0.00000000000000	0.00000000000000	0.00000000000000	0.00000000000000	0.00000000000000	0.00000000000000	19.83358200000000	0.00000000000000	0.00000000000000	0.00000000000000	0.00000000000000	
13.35828400000000	61.64694400000000	780.81053499999996	56.59791900000000	0.31281900000000	0.00000000000000	0.11779100000000	0.00000000000000	0.00000000000000	0.00000000000000	0.00000000000000	0.00000000000000	0.00000000000000	0.00000000000000	19.94716600000000	0.00000000000000	0.00000000000000	0.00000000000000	0.00000000000000	
13.35994800000000	60.99200200000000	782.86976100000004	56.72199900000000	0.31212300000000	0.00000000000000	0.11778200000000	0.00000000000000	0.00000000000000	0.00000000000000	0.00000000000000	0.00000000000000	0.00000000000000	0.00000000000000	20.06205500000000	0.00000000000000	0.00000000000000	0.00000000000000	0.00000000000000	
13.36162100000000	60.33772500000000	784.76404300000002	56.84564600000000	0.31143700000000	0.00000000000000	0.11777500000000	0.00000000000000	0.00000000000000	0.00000000000000	0.00000000000000	0.00000000000000	0.00000000000000	0.00000000000000	20.17783600000000	0.00000000000000	0.00000000000000	0.00000000000000	0.00000000000000	
13.36328100000000	59.68400500000000	786.49174100000005	56.96826800000000	0.31075900000000	0.00000000000000	0.11777000000000	0.00000000000000	0.00000000000000	0.00000000000000	0.00000000000000	0.00000000000000	0.00000000000000	0.00000000000000	20.29406900000000	0.00000000000000	0.00000000000000	0.00000000000000	0.00000000000000	
13.36495300000000	59.03069000000000	788.05150800000001	57.08923100000000	0.31008500000000	0.00000000000000	0.11776600000000	0.00000000000000	0.00000000000000	0.00000000000000	0.00000000000000	0.00000000000000	0.00000000000000	0.00000000000000	20.41029000000000	0.00000000000000	0.00000000000000	0.00000000000000	0.00000000000000	
13.36661500000000	58.37758700000000	789.44230000000005	57.20785500000000	0.30941300000000	0.00000000000000	0.11776500000000	0.00000000000000	0.00000000000000	0.00000000000000	0.00000000000000	0.00000000000000	0.00000000000000	0.00000000000000	20.52601600000000	0.00000000000000	0.00000000000000	0.00000000000000	0.00000000000000	
13.36828800000000	57.72446800000000	790.66338499999995	57.32343100000000	0.30874200000000	0.00000000000000	0.11776500000000	0.00000000000000	0.00000000000000	0.00000000000000	0.00000000000000	0.00000000000000	0.00000000000000	0.00000000000000	20.64074800000000	0.00000000000000	0.00000000000000	0.00000000000000	0.00000000000000	
13.36996200000000	57.07107400000000	791.71434899999997	57.43522000000000	0.30806700000000	0.00000000000000	0.11776800000000	0.00000000000000	0.00000000000000	0.00000000000000	0.00000000000000	0.00000000000000	0.00000000000000	0.00000000000000	20.75397200000000	0.00000000000000	0.00000000000000	0.00000000000000	0.00000000000000	
13.37161800000000	56.41712300000000	792.59510299999999	57.54246400000000	0.30738600000000	0.00000000000000	0.11777200000000	0.00000000000000	0.00000000000000	0.00000000000000	0.00000000000000	0.00000000000000	0.00000000000000	0.00000000000000	20.86517000000000	0.00000000000000	0.00000000000000	0.00000000000000	0.00000000000000	
13.37328100000000	55.76231300000000	793.30588899999998	57.64439300000000	0.30669800000000	0.00000000000000	0.11777900000000	0.00000000000000	0.00000000000000	0.00000000000000	0.00000000000000	0.00000000000000	0.00000000000000	0.00000000000000	20.97381600000000	0.00000000000000	0.00000000000000	0.00000000000000	0.00000000000000	
13.37494600000000	55.10632700000000	793.84727899999996	57.74022700000000	0.30599900000000	0.00000000000000	0.11778800000000	0.00000000000000	0.00000000000000	0.00000000000000	0.00000000000000	0.00000000000000	0.00000000000000	0.00000000000000	21.07938500000000	0.00000000000000	0.00000000000000	0.00000000000000	0.00000000000000	
13.37661900000000	54.44884000000000	794.22018300000002	57.82918900000000	0.30528800000000	0.00000000000000	0.11779900000000	0.00000000000000	0.00000000000000	0.00000000000000	0.00000000000000	0.00000000000000	0.00000000000000	0.00000000000000	21.18135600000000	0.00000000000000	0.00000000000000	0.00000000000000	0.00000000000000	
13.37828100000000	53.78952400000000	794.42584199999999	57.91050900000000	0.30456100000000	0.00000000000000	0.11781300000000	0.00000000000000	0.00000000000000	0.00000000000000	0.00000000000000	0.00000000000000	0.00000000000000	0.00000000000000	21.27921400000000	0.00000000000000	0.00000000000000	0.00000000000000	0.00000000000000	
13.37995200000000	53.12805300000000	794.46583299999998	57.98342900000000	0.30381700000000	0.00000000000000	0.11782800000000	0.00000000000000	0.00000000000000	0.00000000000000	0.00000000000000	0.00000000000000	0.00000000000000	0.00000000000000	21.37245500000000	0.00000000000000	0.00000000000000	0.00000000000000	0.00000000000000	
13.38162800000000	52.46410500000000	794.34206600000005	58.04721000000000	0.30305200000000	0.00000000000000	0.11784700000000	0.00000000000000	0.00000000000000	0.00000000000000	0.00000000000000	0.00000000000000	0.00000000000000	0.00000000000000	21.46059200000000	0.00000000000000	0.00000000000000	0.00000000000000	0.00000000000000	
13.38328500000000	51.79737100000000	794.05677600000001	58.10114000000000	0.30226700000000	0.00000000000000	0.11786700000000	0.00000000000000	0.00000000000000	0.00000000000000	0.00000000000000	0.00000000000000	0.00000000000000	0.00000000000000	21.54315300000000	0.00000000000000	0.00000000000000	0.00000000000000	0.00000000000000	
13.38495400000000	51.12755600000000	793.61252400000001	58.14453700000000	0.30145700000000	0.00000000000000	0.11789000000000	0.00000000000000	0.00000000000000	0.00000000000000	0.00000000000000	0.00000000000000	0.00000000000000	0.00000000000000	21.61968800000000	0.00000000000000	0.00000000000000	0.00000000000000	0.00000000000000	
13.38662800000000	50.45438800000000	793.01218700000004	58.17675600000000	0.30062100000000	0.00000000000000	0.11791600000000	0.00000000000000	0.00000000000000	0.00000000000000	0.00000000000000	0.00000000000000	0.00000000000000	0.00000000000000	21.68977500000000	0.00000000000000	0.00000000000000	0.00000000000000	0.00000000000000	
13.38828400000000	49.77761400000000	792.25895000000003	58.19719200000000	0.29975800000000	0.00000000000000	0.11794400000000	0.00000000000000	0.00000000000000	0.00000000000000	0.00000000000000	0.00000000000000	0.00000000000000	0.00000000000000	21.75301600000000	0.00000000000000	0.00000000000000	0.00000000000000	0.00000000000000	
13.38995300000000	49.09701300000000	791.35630100000003	58.20528900000000	0.29886600000000	0.00000000000000	0.11797400000000	0.00000000000000	0.00000000000000	0.00000000000000	0.00000000000000	0.00000000000000	0.00000000000000	0.00000000000000	21.80904600000000	0.00000000000000	0.00000000000000	0.00000000000000	0.00000000000000	
13.39163200000000	48.41239000000000	790.30801699999995	58.20053800000000	0.29794400000000	0.00000000000000	0.11800700000000	0.00000000000000	0.00000000000000	0.00000000000000	0.00000000000000	0.00000000000000	0.00000000000000	0.00000000000000	21.85753200000000	0.00000000000000	0.00000000000000	0.00000000000000	0.00000000000000	
13.39328000000000	47.72358700000000	789.11815899999999	58.18248800000000	0.29699000000000	0.00000000000000	0.11804200000000	0.00000000000000	0.00000000000000	0.00000000000000	0.00000000000000	0.00000000000000	0.00000000000000	0.00000000000000	21.89817800000000	0.00000000000000	0.00000000000000	0.00000000000000	0.00000000000000	
13.39495200000000	47.03048200000000	787.79105300000003	58.15074300000000	0.29600200000000	0.00000000000000	0.11808000000000	0.00000000000000	0.00000000000000	0.00000000000000	0.00000000000000	0.00000000000000	0.00000000000000	0.00000000000000	21.93072300000000	0.00000000000000	0.00000000000000	0.00000000000000	0.00000000000000	
13.39661900000000	46.33299100000000	786.33128299999998	58.10496800000000	0.29498100000000	0.00000000000000	0.11812000000000	0.00000000000000	0.00000000000000	0.00000000000000	0.00000000000000	0.00000000000000	0.00000000000000	0.00000000000000	21.95494800000000	0.00000000000000	0.00000000000000	0.00000000000000	0.00000000000000	
13.39828400000000	45.63107100000000	784.74367600000005	58.04489100000000	0.29392500000000	0.00000000000000	0.11816200000000	0.00000000000000	0.00000000000000	0.00000000000000	0.00000000000000	0.00000000000000	0.00000000000000	0.00000000000000	21.97067300000000	0.00000000000000	0.00000000000000	0.00000000000000	0.00000000000000	
13.39995100000000	44.92472200000000	783.03328499999998	57.97030700000000	0.29283300000000	0.00000000000000	0.11820700000000	0.00000000000000	0.00000000000000	0.00000000000000	0.00000000000000	0.00000000000000	0.00000000000000	0.00000000000000	21.97776100000000	0.00000000000000	0.00000000000000	0.00000000000000	0.00000000000000	
13.40162500000000	44.21398700000000	781.20537999999999	57.88107500000000	0.29170500000000	0.00000000000000	0.11825400000000	0.00000000000000	0.00000000000000	0.00000000000000	0.00000000000000	0.00000000000000	0.00000000000000	0.00000000000000	21.97611800000000	0.00000000000000	0.00000000000000	0.00000000000000	0.00000000000000	
